<?xml version="1.0" encoding="utf-8"?>
<!-- Generator: Adobe Illustrator 24.0.3, SVG Export Plug-In . SVG Version: 6.00 Build 0)  -->
<svg version="1.1" id="Layer_1" xmlns="http://www.w3.org/2000/svg" xmlns:xlink="http://www.w3.org/1999/xlink" x="0px" y="0px"
	 viewBox="0 0 775 775" style="enable-background:new 0 0 775 775;" xml:space="preserve">
<style type="text/css">
	.st0{fill:#080C34;}
	.st1{fill:#FFFFFF;}
	.st2{fill:#0082A5;}
</style>
<g>
	<rect x="-0.078125" y="0.4375" class="st0" width="775" height="775"/>
	<g>
		<path class="st1" d="M597.4372559,598.6743774c-46.8236084-47.6749268-425.3294678-405.8732605-477.2155457-462.9479675
			c-16.9024124-18.5926514-24.9482574-27.4634018,1.690239-53.2425919c26.1987457-25.3536224,38.8755493-18.5926628,56.6230774,0
			c82.0277863,85.9338913,458.0637817,523.0012817,458.0637817,523.0012817S606.7554932,608.1620483,597.4372559,598.6743774z"/>
		<path class="st2" d="M161.8276672,241.7415009c-3.5635986,10.6908264-25.9059906,35.5358429-23.2615662,54.7079315
			c1.0209961,7.4022827-8.3841705,14.6452637-14.5694885,21.2908325
			c-8.9452972,9.6109009-19.4840317,19.8035583-19.4840317,23.8300781c0,8.5133667,15.3545456,12.1515503,16.2058792,18.9622498
			c0.8513412,6.8106995-6.8106995,9.3647156-7.6620407,12.7700806c-0.8513336,3.4053345,1.7026749,7.6620483,1.7026749,7.6620483
			s-3.4053497,3.4053345-3.4053497,7.6620178c0,5.1080322,3.5096588,3.3884583,4.256691,9.3647461
			c0.8513336,6.8106995-13.6518707,25.3072815-9.3951797,34.6719971
			c6.6934357,14.7255554,29.7968292,12.7700806,48.5567169,24.9216309
			c15.1912384,9.8399963,8.4829254,24.4559631,8.4829254,24.4559631s-66.4043579-3.4053345-106.417244,45.1209106
			c0,0,31.0183563,65.2631226,130.6803589,127.2750244c114.9306183,71.5123901,210.1976776,64.2754517,292.4345703,44.6952515
			c53.6343079-12.7700806,183.8890076-74.9177246,183.8890076-74.9177246s-20.9208984-1.6721191-61.2963257,0.8513184
			c-68.1070557,4.2567139-71.0899048-6.7131348-80.0257568-19.5807495
			c-21.2834778-30.6481934-126.8493652-77.4717407-126.8493652-77.4717407s-73.1754456-158.6323242-94.4588928-235.2527466
			c-17.2929993-62.2548218-50.4130554-75.2521515-60.383606-76.0191193c-13-1-43-4-64-23c0,0,6,28,3,37
			c0,0-12.6463165-18.5774536-12.4360199-14.4851532C167.8276672,224.7415009,165.8276672,229.7415009,161.8276672,241.7415009z"/>
		<path class="st0" d="M222.6442719,293.2138672c0,0-18.5251617,8.3435669-13.6213989,36.6075134
			c0.1983032,1.1429749,1.9069519,10.0462646-10.0117798,5.7895813c-1.3156891-0.4698792,8.513382,5.1080322,8.513382,5.1080322
			c-0.8513489,10.2160645-23.6717987,14.4936523-24.041748,19.7505493
			c-0.6470642,9.1949463,12.7700806,10.2160645,13.6214142,17.0267639s-7.6620483,11.0673828-8.513382,14.4727478
			c-0.8513336,3.4053345,3.4053497,8.5133667,3.4053497,8.5133667s-5.108017,4.2567139-5.108017,8.5133972
			s5.108017,1.7026672,5.9593658,8.5133667c0.8513336,6.8106995-10.011795,13.4516296-6.6064301,23.6676941
			c5.6213989,16.8642273,57.0396271,17.8780823,54.4856262,48.5262451c0,0-29.7968292-3.4053345-57.0396423-2.5540161
			c0,0,23.7591858,31.7800293,105.5658875,94.4985352c127.7007141,97.9038696,309.035675,40.0128784,309.035675,40.0128784
			s-19.249939,6.1467896-45.1209106-8.5133667c-25.5401611-14.4727783-201.971344-116.4635315-201.971344-116.4635315
			s-8.4519043-27.2208252,20.6363831-52.9527283c22.1347656-19.58078,104.7145386-59.5936584,83.4310913-136.2140808
			c-17.2929993-62.2548218-53.4916382-116.9101105-145.4361267-94.7753143
			c-25.2098694,6.069046-84.6817932,5.4522247-89.7898254,0.3441925c0,0,3.6620483,45.0535278-2.2973175,50.1615601
			c-6.0979767,5.2268372-17.8780975-9.3647308-17.8780975-9.3647308
			c-0.8513336,16.1754303,14.4727478,24.688797,14.4727478,24.688797s-12.7700653-1.7026672-18.7294312-8.5133667
			C195.6057434,270.0579529,203.2677765,286.2333679,222.6442719,293.2138672z"/>
		<path class="st1" d="M296.0635986,314.3275146c0,0-11.0673828,13.6213989-6.8106995,33.202179
			c2.6332092,12.1127625-29.796814,24.6888123-31.4994812,34.9048462
			c-1.3203735,7.9222412,14.4727478,11.0674133,15.3240662,17.8781128
			c0.8513489,6.8106995-7.6620483,13.6213989-8.5133667,17.0267639c-0.8513489,3.4053345,2.5540161,6.8106995,2.5540161,6.8106995
			s-4.2567139,3.4053345-4.2567139,7.6620483c0,4.2566833,3.405365,1.7026672,4.2567139,8.5133667
			c0.8513184,6.8106995-8.2882385,13.2368164-5.1080322,23.8374634
			c5.1080322,17.0267639,56.1882935,20.4320984,51.9316101,40.8642273
			c-1.2154541,5.8341064-46.8235779-11.9187317-51.9316101-10.2160645c0,0,56.1021729,48.4483643,95.3498535,74.9177246
			c39.413147,26.5809937,94.4985046,60.4450073,210.2804871,36.6075439c0,0-44.7901611-49.1901245-70.6610718-63.8503418
			c-25.5401306-14.4727173-72.363739-22.1347656-72.363739-22.1347656s4.2567139-49.3776245,13.6214294-59.593689
			l17.0267334,5.1080322c0,0,57.8909912-60.4449768,36.6075439-137.0653992
			c-17.2929993-62.2548218-75.7690735-79.1744232-111.5252686-79.1744232s-61.2963257,16.1754303-61.2963257,16.1754303
			l-72.3637238-26.3914948C244.1320038,245.3691406,240.7266541,288.787384,296.0635986,314.3275146z"/>
		<circle class="st1" cx="679.5913696" cy="677.4231567" r="35.3305244"/>
	</g>
</g>
</svg>
